<?xml version="1.0" encoding="iso-8859-1"?>
<!-- Generator: Adobe Illustrator 17.1.0, SVG Export Plug-In . SVG Version: 6.00 Build 0)  -->
<!DOCTYPE svg PUBLIC "-//W3C//DTD SVG 1.1//EN" "http://www.w3.org/Graphics/SVG/1.1/DTD/svg11.dtd">
<svg version="1.1" id="Capa_1" xmlns="http://www.w3.org/2000/svg" xmlns:xlink="http://www.w3.org/1999/xlink" x="0px" y="0px"
	 viewBox="0 0 294.1 294.1" style="enable-background:new 0 0 294.1 294.1;" xml:space="preserve">
<path d="M294.089,25.772c-0.766-7.566-6.988-13.222-14.756-13.222h-264C7.049,12.55,0,18.766,0,27.05v158.333
	c0,0.002,0,0.004,0,0.006v29.161c0,8.284,7.049,15,15.333,15h74.618l-4.416,22H64.333c-8.284,0-15,6.716-15,15s6.716,15,15,15h33.5
	h99c0.005-0.001,0.013-0.001,0.02,0h32.48c8.284,0,15-6.716,15-15s-6.716-15-15-15H209.13l-4.416-22h74.618
	c8.284,0,14.667-6.716,14.667-15V27.05C294,26.532,294.14,26.273,294.089,25.772z M264,42.55v128H30v-128H264z"/>
<g>
</g>
<g>
</g>
<g>
</g>
<g>
</g>
<g>
</g>
<g>
</g>
<g>
</g>
<g>
</g>
<g>
</g>
<g>
</g>
<g>
</g>
<g>
</g>
<g>
</g>
<g>
</g>
<g>
</g>
</svg>
