<?xml version="1.0" encoding="iso-8859-1"?>
<!-- Generator: Adobe Illustrator 19.0.0, SVG Export Plug-In . SVG Version: 6.00 Build 0)  -->
<svg version="1.1" id="Layer_1" xmlns="http://www.w3.org/2000/svg" xmlns:xlink="http://www.w3.org/1999/xlink" x="0px" y="0px"
	 viewBox="0 0 512 512" style="enable-background:new 0 0 512 512;" xml:space="preserve">
<g>
	<g>
		<path d="M470.326,95.256H41.674C18.695,95.256,0,113.951,0,136.93v238.14c0,22.979,18.695,41.674,41.674,41.674h428.651
			c22.979,0,41.674-18.695,41.674-41.674V136.93C512,113.951,493.305,95.256,470.326,95.256z M476.279,375.07
			c0,3.283-2.671,5.953-5.953,5.953H41.674c-3.283,0-5.953-2.671-5.953-5.953V214.326h440.558V375.07z M476.279,178.605H35.721
			V136.93c0-3.283,2.671-5.953,5.953-5.953h428.651c3.283,0,5.953,2.671,5.953,5.953V178.605z"/>
	</g>
</g>
<g>
	<g>
		<path d="M107.163,285.767c-13.131,0-23.814,10.683-23.814,23.814c0,13.131,10.683,23.814,23.814,23.814
			c13.131,0,23.814-10.683,23.814-23.814C130.977,296.45,120.294,285.767,107.163,285.767z"/>
	</g>
</g>
<g>
	<g>
		<path d="M154.791,285.767c-13.131,0-23.814,10.683-23.814,23.814c0,13.131,10.683,23.814,23.814,23.814
			c13.131,0,23.814-10.683,23.814-23.814C178.605,296.45,167.922,285.767,154.791,285.767z"/>
	</g>
</g>
<g>
</g>
<g>
</g>
<g>
</g>
<g>
</g>
<g>
</g>
<g>
</g>
<g>
</g>
<g>
</g>
<g>
</g>
<g>
</g>
<g>
</g>
<g>
</g>
<g>
</g>
<g>
</g>
<g>
</g>
</svg>
