<?xml version="1.0" encoding="utf-8"?>
<svg id="master-artboard" viewBox="0 0 910.769287109375 980" version="1.1" xmlns="http://www.w3.org/2000/svg" x="0px" y="0px" style="enable-background:new 0 0 336 235.2;" width="910.769287109375px" height="980px"><defs><path id="text-path-0" d="M 778.8464965820312 213.4612274169922 A 100 18 0 0 1 988.3533935546875 213.4612274169922 A 100 18 0 0 1 778.8464965820312 213.4612274169922 Z" style="fill: none; stroke: red; stroke-width: 2;"/><path id="text-path-1" d="M 664.5464477539062 37.96122741699219 A 100 19 0 0 1 876.5812377929688 37.96122741699219 A 100 19 0 0 1 664.5464477539062 37.96122741699219" style="fill: none; stroke: red; stroke-width: 2;"/><path id="text-path-2" d="M 765.3650512695312 211.70851135253906 A 100 17 0 0 1 991.5017700195312 211.70851135253906 A 100 17 0 0 1 765.3650512695312 211.70851135253906" style="fill: none; stroke: red; stroke-width: 2;"/><path id="path-1" d="M 765.3650512695312 211.70851135253906 A 100 17 0 0 1 991.5017700195312 211.70851135253906 A 100 17 0 0 1 765.3650512695312 211.70851135253906" style="fill: none; stroke: red; stroke-width: 2;"/></defs><rect id="ee-background" x="0" y="0" width="910.769287109375" height="980" style="fill: none; fill-opacity: 0; pointer-events: none;"/>














<g transform="matrix(0.9999999128069197, 0, 0, 0.9999999128069197, -0.0000013296420320330071, 0.00007191254542249226)"><rect id="rect-2" x="0" y="0" width="1400" height="980" style="fill: rgb(140, 175, 255); fill-opacity: 0; pointer-events: none;"/><g transform="matrix(0.9999998211860658, 0, 0, 0.9999998211860658, -250.76922347277582, -4.615312920519671)"><path d="M 0 0 H 1400 V 980 H 0 V 0 Z" id="rect-1" style="fill: none; fill-opacity: 1; pointer-events: none;"/><path d="M 880.3870239257812 239.90606689453125" style="fill: rgb(63, 61, 61); fill-opacity: 1; stroke: rgb(0, 0, 0); stroke-opacity: 1; stroke-width: 0; paint-order: fill;"/><path d="M 864.144775390625 229.48651123046875" style="fill: rgb(63, 61, 61); fill-opacity: 1; stroke: rgb(0, 0, 0); stroke-opacity: 1; stroke-width: 0; paint-order: fill;"/><g transform="matrix(2.719574928283692, 0, 0, 2.719574928283692, 9.03971632620636, -417.6163437267664)"><g>
	<path d="M176.2,501h159.5c12.9,0,23.3-10.5,23.3-23.3v-47.3h27.5c18.3,0,33.1-14.8,33.1-33.1V276.8c0-18.3-14.8-33.1-33.1-33.1H359&#10;&#9;&#9;v-57.4c0-12.9-10.5-23.3-23.3-23.3H176.2c-12.9,0-23.3,10.5-23.3,23.3v57.4h-27.4c-18.3,0-33.1,14.8-33.1,33.1v120.5&#10;&#9;&#9;c0,18.3,14.8,33.1,33.1,33.1h27.5v47.3C152.9,490.6,163.4,501,176.2,501z M334.6,476.5H177.4V349.3h157.2V476.5z M177.4,187.4&#10;&#9;&#9;h157.2v56.2H177.4V187.4z M125.5,405.9c-4.7,0-8.6-3.9-8.6-8.6V276.8c0-4.7,3.9-8.6,8.6-8.6h261.1c4.7,0,8.6,3.9,8.6,8.6v120.5&#10;&#9;&#9;c0,4.7-3.9,8.6-8.6,8.6h-27.5V337c0-6.8-5.5-12.3-12.3-12.3H165.2c-6.8,0-12.3,5.5-12.3,12.3v68.9H125.5z"/>
	<path d="M302.8,400.7h-93.6c-6.8,0-12.3,5.5-12.3,12.3s5.5,12.3,12.3,12.3h93.6c6.8,0,12.3-5.5,12.3-12.3S309.6,400.7,302.8,400.7z&#10;&#9;&#9;"/>
	<path d="M302.8,438.1h-93.6c-6.8,0-12.3,5.5-12.3,12.3c0,6.8,5.5,12.3,12.3,12.3h93.6c6.8,0,12.3-5.5,12.3-12.3&#10;&#9;&#9;C315,443.6,309.6,438.1,302.8,438.1z"/>
	<path d="M302.8,363.2h-93.6c-6.8,0-12.3,5.5-12.3,12.3c0,6.8,5.5,12.3,12.3,12.3h93.6c6.8,0,12.3-5.5,12.3-12.3&#10;&#9;&#9;C315,368.7,309.6,363.2,302.8,363.2z"/>
	<path d="M 156.999994 293.600006 A 12.1 12.1 0 0 1 144.899994 305.700006 A 12.1 12.1 0 0 1 132.799994 293.600006 A 12.1 12.1 0 0 1 144.899994 281.500006 A 12.1 12.1 0 0 1 156.999994 293.600006 Z"/>
	<path d="M307,102.7c3.8,0,7.6-1.8,10-5.2c3.9-5.5,2.6-13.2-2.9-17.1C297.1,68.4,277,62,256,62c-21,0-41.1,6.4-58.1,18.4&#10;&#9;&#9;c-5.5,3.9-6.8,11.6-2.9,17.1c3.9,5.5,11.6,6.8,17.1,2.9c12.8-9.1,28-13.9,43.9-13.9c15.9,0,31.1,4.8,43.9,13.9&#10;&#9;&#9;C302.1,102,304.6,102.7,307,102.7z"/>
	<path d="M256,112.7c-9.8,0-19.2,3-27.1,8.6c-5.5,3.9-6.8,11.6-2.9,17.1c3.9,5.5,11.6,6.8,17.1,2.9c7.5-5.3,18.3-5.3,25.8,0&#10;&#9;&#9;c2.2,1.5,4.6,2.3,7.1,2.3c3.8,0,7.6-1.8,10-5.2c3.9-5.5,2.6-13.2-2.9-17.1C275.2,115.7,265.8,112.7,256,112.7z"/>
	<path d="M343.1,63.1c3.8,0,7.6-1.8,10-5.2c3.9-5.5,2.6-13.2-2.9-17.1C322.7,21.3,290.1,11,256,11c-34.1,0-66.7,10.3-94.2,29.9&#10;&#9;&#9;c-5.5,3.9-6.8,11.6-2.9,17.1c3.9,5.5,11.6,6.8,17.1,2.9c23.4-16.6,51.1-25.4,80-25.4c29,0,56.6,8.8,80,25.4&#10;&#9;&#9;C338.2,62.4,340.7,63.1,343.1,63.1z"/>
</g></g></g></g></svg>